<svg width="1728" height="272" viewBox="0 0 1728 272" fill="none" xmlns="http://www.w3.org/2000/svg">
<path d="M-6 -50H1734V192L1625.33 216.982C1553.54 233.486 1479.12 235.126 1406.67 221.802L1347.43 210.907C1315.21 204.981 1282.52 202 1249.76 202H1130.74C1097.98 202 1065.29 204.981 1033.07 210.907L1000.92 216.819C911.548 233.256 819.328 223.515 735.361 188.77C677.992 165.031 614.057 162.441 554.956 181.462L509.68 196.034C456.221 213.239 400.404 222 344.244 222H272.77C232.054 222 191.469 226.605 151.788 235.727L-6 272V-50Z" fill="#19ADBD" fill-opacity="0.3"/>
</svg>
