<svg width="24" height="24" viewBox="0 0 24 24" fill="none" xmlns="http://www.w3.org/2000/svg">
<path d="M15.75 11.25C15.75 11.0511 15.671 10.8603 15.5303 10.7197C15.3897 10.579 15.1989 10.5 15 10.5H13.5V9C13.5 8.80109 13.421 8.61032 13.2803 8.46967C13.1397 8.32902 12.9489 8.25 12.75 8.25H11.25C11.0511 8.25 10.8603 8.32902 10.7197 8.46967C10.579 8.61032 10.5 8.80109 10.5 9V10.5H9C8.80109 10.5 8.61032 10.579 8.46967 10.7197C8.32902 10.8603 8.25 11.0511 8.25 11.25V12.75C8.25 12.9489 8.32902 13.1397 8.46967 13.2803C8.61032 13.421 8.80109 13.5 9 13.5H10.5V15C10.5 15.1989 10.579 15.3897 10.7197 15.5303C10.8603 15.671 11.0511 15.75 11.25 15.75H12.75C12.9489 15.75 13.1397 15.671 13.2803 15.5303C13.421 15.3897 13.5 15.1989 13.5 15V13.5H15C15.1989 13.5 15.3897 13.421 15.5303 13.2803C15.671 13.1397 15.75 12.9489 15.75 12.75V11.25Z" stroke="#7B7B7B" stroke-width="1.5" stroke-linecap="round" stroke-linejoin="round"/>
<path d="M5.63599 5.63604C6.89466 4.37737 8.49831 3.5202 10.2441 3.17294C11.99 2.82567 13.7996 3.0039 15.4441 3.68509C17.0886 4.36628 18.4942 5.51983 19.4832 6.99987C20.4721 8.47991 20.9999 10.22 20.9999 12C20.9999 13.78 20.4721 15.5201 19.4832 17.0001C18.4942 18.4802 17.0886 19.6337 15.4441 20.3149C13.7996 20.9961 11.99 21.1743 10.2441 20.8271C8.49831 20.4798 6.89466 19.6226 5.63599 18.364" stroke="#7B7B7B" stroke-width="1.5" stroke-linecap="round" stroke-linejoin="round"/>
<path d="M4.5 12H2" stroke="#7B7B7B" stroke-width="1.5" stroke-linecap="round" stroke-linejoin="round"/>
<path d="M6 9L3.5 9.0001" stroke="#7B7B7B" stroke-width="1.5" stroke-linecap="round" stroke-linejoin="round"/>
<path d="M6 15L3.5 15.0001" stroke="#7B7B7B" stroke-width="1.5" stroke-linecap="round" stroke-linejoin="round"/>
</svg>
