<svg width="142" height="65" viewBox="0 0 142 65" fill="none" xmlns="http://www.w3.org/2000/svg">
<path d="M86.1559 33.5681C86.1559 33.9841 86.2999 34.3441 86.5879 34.6481C86.8759 34.9361 87.2359 35.0801 87.6679 35.0801H88.2679C88.7799 35.0801 89.2839 35.0241 89.7799 34.9121V32.7041C89.7799 32.2881 89.6279 31.9361 89.3239 31.6481C89.0359 31.3441 88.6839 31.1921 88.2679 31.1921H86.1079C86.1399 31.3681 86.1559 31.5441 86.1559 31.7201V33.5681ZM83.6359 31.7201C83.6359 31.2081 83.4599 30.7441 83.1079 30.3281L85.0039 28.6721H88.2679C89.3719 28.6721 90.3159 29.0721 91.0999 29.8721C91.8999 30.6561 92.2999 31.6001 92.2999 32.7041V33.5681C92.2999 34.6721 91.8999 35.6241 91.0999 36.4241C90.3159 37.2081 89.3719 37.6001 88.2679 37.6001H87.6679C86.5319 37.6001 85.5719 37.1921 84.7879 36.3761C83.9399 37.1921 82.9159 37.6001 81.7159 37.6001H81.3079L80.7559 37.2881V35.3921L81.3079 35.0801H81.7159C82.3559 35.0801 82.9959 34.9841 83.6359 34.7921V31.7201Z" fill="#197BBD"/>
<path d="M77.58 35.6561C77.244 36.0081 76.852 36.3361 76.404 36.6401C75.412 37.2801 74.076 37.6001 72.396 37.6001H70.548L70.116 35.0801H72.396C73.9 35.0801 75.284 34.6961 76.548 33.9281L73.74 29.1761L75.9 27.9041L79.716 34.3121C80.02 34.8241 80.452 35.0801 81.012 35.0801H81.3L81.852 35.3921V37.2881L81.3 37.6001H81.012C79.572 37.6001 78.492 37.0481 77.772 35.9441L77.58 35.6561Z" fill="#197BBD"/>
<path d="M68.4967 31.0242H63.7447C63.5527 31.6482 63.4567 32.3042 63.4567 32.9922V33.2802L66.3607 34.3842C67.2407 34.7362 67.8407 35.2322 68.1607 35.8722C68.4967 36.5122 68.6647 37.1122 68.6647 37.6722C68.6647 38.7442 68.3527 39.6002 67.7287 40.2402C67.1207 40.8962 66.3847 41.3762 65.5207 41.6802C64.6727 41.9842 63.8727 42.1362 63.1207 42.1362H62.3527C60.6727 42.1362 59.2407 41.5442 58.0567 40.3602C56.8887 39.1922 56.3047 37.7682 56.3047 36.0882V32.3922L58.8247 31.9602V36.0882C58.8247 37.0642 59.1687 37.8962 59.8567 38.5842C60.5447 39.2722 61.3767 39.6162 62.3527 39.6162H63.1207C64.4967 39.6162 65.6727 39.3122 66.6487 38.7042C66.6487 37.6802 66.1527 36.9762 65.1607 36.5922L60.9367 35.0562V32.9922C60.9367 31.7442 61.3687 30.6882 62.2327 29.8242C63.1127 28.9442 64.1767 28.5042 65.4247 28.5042H68.0887L68.4967 31.0242Z" fill="#197BBD"/>
<path d="M47.7652 33.5681C47.7652 33.9841 47.9092 34.3441 48.1972 34.6481C48.4852 34.9361 48.8452 35.0801 49.2772 35.0801H49.8772C50.3892 35.0801 50.8932 35.0241 51.3892 34.9121V32.7041C51.3892 32.2881 51.2372 31.9361 50.9332 31.6481C50.6452 31.3441 50.2932 31.1921 49.8772 31.1921H47.7172C47.7492 31.3681 47.7652 31.5441 47.7652 31.7201V33.5681ZM45.2452 31.7201C45.2452 31.2081 45.0692 30.7441 44.7172 30.3281L46.6132 28.6721H49.8772C50.9812 28.6721 51.9252 29.0721 52.7092 29.8721C53.5092 30.6561 53.9092 31.6001 53.9092 32.7041V33.5681C53.9092 34.6721 53.5092 35.6241 52.7092 36.4241C51.9252 37.2081 50.9812 37.6001 49.8772 37.6001H49.2772C48.1412 37.6001 47.1812 37.1921 46.3972 36.3761C45.5492 37.1921 44.5252 37.6001 43.3252 37.6001H42.9172L42.3652 37.2881V35.3921L42.9172 35.0801H43.3252C43.9652 35.0801 44.6052 34.9841 45.2452 34.7921V31.7201Z" fill="#19ADBD"/>
<path d="M39.1893 35.6561C38.8533 36.0081 38.4613 36.3361 38.0133 36.6401C37.0213 37.2801 35.6853 37.6001 34.0053 37.6001H32.1573L31.7253 35.0801H34.0053C35.5093 35.0801 36.8933 34.6961 38.1573 33.9281L35.3493 29.1761L37.5093 27.9041L41.3253 34.3121C41.6293 34.8241 42.0613 35.0801 42.6213 35.0801H42.9093L43.4613 35.3921V37.2881L42.9093 37.6001H42.6213C41.1813 37.6001 40.1013 37.0481 39.3813 35.9441L39.1893 35.6561Z" fill="#19ADBD"/>
<path d="M28.6987 42.256H23.5867V40H28.6987C28.7787 40 28.8427 40.016 28.8907 40.048L28.8187 42.304L28.6987 42.256ZM24.3547 37.6L23.8027 37.288V35.392L24.3547 35.08H25.6027C26.2427 35.08 26.8827 34.984 27.5227 34.792V30.088L30.0427 29.656V33.112C30.0427 34.344 29.6107 35.4 28.7467 36.28C27.8987 37.16 26.8507 37.6 25.6027 37.6H24.3547Z" fill="#19ADBD"/>
<path d="M24.344 35.08L24.896 35.392V37.288L24.344 37.6H24.032C22.928 37.6 21.976 37.208 21.176 36.424C20.392 35.624 20 34.672 20 33.568V23.128L22.52 22.696V33.568C22.52 33.984 22.664 34.344 22.952 34.648C23.256 34.936 23.616 35.08 24.032 35.08H24.344Z" fill="#19ADBD"/>
<rect x="109.14" y="32.8406" width="12.1595" height="12.1595" rx="6.07977" fill="#19ADBD"/>
<rect opacity="0.3" x="109.092" y="20" width="12.1595" height="12.1595" fill="#197BBD"/>
<path d="M96.2998 32.8406H108.459V35.2725C108.459 40.6449 104.104 45.0001 98.7317 45.0001H96.2998V32.8406Z" fill="#19ADBD"/>
<path d="M108.411 26.0798L96.3484 32.1595L96.3484 20L108.411 26.0798Z" fill="#197BBD"/>
</svg>
