<svg width="1728" height="242" viewBox="0 0 1728 242" fill="none" xmlns="http://www.w3.org/2000/svg">
<path d="M1734 -30H-6V242L137.716 222.177C186.673 215.424 236.326 215.424 285.284 222.177L367.545 233.523C408.381 239.156 449.727 240.094 490.776 236.319L597.053 226.547C629.948 223.522 663.052 223.522 695.947 226.547L754.138 231.898C826.63 238.564 899.723 230.503 969.021 208.2L989.591 201.58C1049.35 182.346 1113.65 182.346 1173.41 201.58L1181.77 204.272C1258.93 229.105 1340.7 236.249 1420.99 225.173L1442.72 222.177C1491.67 215.424 1541.33 215.424 1590.28 222.177L1734 242V-30Z" fill="#19ADBD" fill-opacity="0.3"/>
</svg>
